<svg xmlns="http://www.w3.org/2000/svg" width="1280" height="200" viewBox="0 0 1280 200"><style type="text/css">.st0{clip-path:url(#SVGID_2_);}.st1{fill:#4285F4;}.st2{fill:none;stroke:#4285F4;stroke-linecap:round;stroke-linejoin:round;stroke-miterlimit:10;}.st3{fill:#34A853;}.st4{fill:none;stroke:#34A853;stroke-miterlimit:10;}.st5{fill:none;stroke:#202124;stroke-linecap:round;stroke-linejoin:round;}.st6{fill:none;stroke:#202124;stroke-linecap:round;stroke-linejoin:round;stroke-dasharray:0.0984,4.9219;}.st7{fill:#FBBC04;}.st8{fill:none;stroke:#FBBC04;stroke-width:0.5;stroke-linecap:round;stroke-linejoin:round;stroke-miterlimit:10;}.st9{fill:none;}.st10{fill:none;stroke:#202124;stroke-linecap:round;stroke-linejoin:round;stroke-dasharray:0.0993,4.9664;}.st11{fill:#EA4335;}.st12{fill:none;stroke:#EA4335;stroke-miterlimit:10;}.st13{fill:#DADCE0;}.st14{fill:none;stroke:#DADCE0;stroke-linecap:round;stroke-linejoin:round;stroke-miterlimit:10;}.st15{fill:none;stroke:#202124;stroke-linecap:round;stroke-linejoin:round;stroke-miterlimit:10;}.st16{fill:none;stroke:#202124;stroke-linecap:round;stroke-linejoin:round;stroke-dasharray:0.0943,4.716;}</style><g><defs><rect id="SVGID_1_" width="1280" height="200"/></defs><clipPath id="SVGID_2_"><use href="#SVGID_1_"  style="overflow:visible;"/></clipPath><g class="st0"><g><path class="st1" d="M876.42,36.25c3.97-6.88,10.46-6.88,14.43,0c3.97,6.88,0.72,12.5-7.22,12.5C875.7,48.75,872.45,43.13,876.42,36.25z"/><path class="st2" d="M876.42,36.25c3.97-6.88,10.46-6.88,14.43,0c3.97,6.88,0.72,12.5-7.22,12.5C875.7,48.75,872.45,43.13,876.42,36.25z"/></g><g><g><g><path class="st3" d="M768.17,148.75c-7.94,13.75-20.93,13.75-28.87,0c-7.94-13.75-1.44-25,14.43-25S776.11,135,768.17,148.75z"/><path class="st4" d="M768.17,148.75c-7.94,13.75-20.93,13.75-28.87,0c-7.94-13.75-1.44-25,14.43-25S776.11,135,768.17,148.75z"/></g></g></g><g><g><line class="st5" x1="898.07" y1="73.75" x2="898.05" y2="73.8"/><line class="st6" x1="895.59" y1="78.06" x2="841.59" y2="171.58"/><line class="st5" x1="840.36" y1="173.71" x2="840.34" y2="173.75"/></g></g><g><path class="st7" d="M651.35,110.3c3.44,0,4.84-2.44,3.12-5.41l-0.97-1.67c-1.72-2.98-4.53-2.98-6.25,0l-0.97,1.67c-1.72,2.98-0.31,5.41,3.12,5.41H651.35z"/><path class="st8" d="M651.35,110.3c3.44,0,4.84-2.44,3.12-5.41l-0.97-1.67c-1.72-2.98-4.53-2.98-6.25,0l-0.97,1.67c-1.72,2.98-0.31,5.41,3.12,5.41H651.35z"/></g><g><g><polygon class="st9" points="1129.01,73.75 1157.88,123.75 1186.75,73.75 "/></g><g><circle class="st10" cx="1157.88" cy="98.75" r="25"/></g></g><g><path class="st11" d="M1219.32,130.37c-0.99,1.72-2.62,1.72-3.61,0s-0.18-3.12,1.8-3.12S1220.32,128.65,1219.32,130.37z"/><path class="st12" d="M1219.32,130.37c-0.99,1.72-2.62,1.72-3.61,0s-0.18-3.12,1.8-3.12S1220.32,128.65,1219.32,130.37z"/></g><g><path class="st13" d="M1103.76,167.5c-1.98,3.44-5.23,3.44-7.22,0s-0.36-6.25,3.61-6.25C1104.12,161.25,1105.74,164.07,1103.76,167.5z"/><path class="st14" d="M1103.76,167.5c-1.98,3.44-5.23,3.44-7.22,0s-0.36-6.25,3.61-6.25C1104.12,161.25,1105.74,164.07,1103.76,167.5z"/></g><polygon class="st15" points="782.6,273.75 898.07,273.75 840.34,173.75 724.87,173.75 "/><polygon class="st15" points="840.34,173.75 955.81,173.75 898.07,73.75 782.6,73.75 "/><g><g><g><line class="st5" x1="1215.62" y1="223.75" x2="1215.64" y2="223.71"/><line class="st16" x1="1218" y1="219.63" x2="1228.85" y2="200.84"/><line class="st5" x1="1230.03" y1="198.8" x2="1230.05" y2="198.75"/></g></g></g><g><g><line class="st5" x1="1287.79" y1="98.75" x2="1287.76" y2="98.8"/><line class="st6" x1="1285.3" y1="103.06" x2="1231.31" y2="196.58"/><line class="st5" x1="1230.08" y1="198.71" x2="1230.05" y2="198.75"/></g></g></g></g></svg>
